#!OML:ASF G:\JayActor3\Patient Classification 1\Patient 1\Session 5\male.ASF
:FULLY-SPECIFIED
:DEGREES
471
root -5.27339 16.786 -5.23122 265.155 83.9219 268.762
lowerback 2.50096 -0.395705 6.90479
upperback 2.60688 -0.38005 0.999426
thorax 1.25055 -0.0652621 -2.8318
lowerneck -7.77046 0.00360232 2.36039
upperneck 10.8788 -0.410212 1.54759
head 4.53562 0.013794 0.068347
rclavicle 1.71452e-015 -1.39149e-015
rhumerus -30.6568 -2.48801 -87.9298
rradius 30.7006
rwrist -0.610121
rhand -19.2371 -6.5128
rfingers 7.12502
rthumb 7.07628 -36.3745
lclavicle 1.71452e-015 -1.39149e-015
lhumerus -33.2226 3.10254 84.8963
lradius 33.1761
lwrist 20.6647
lhand -17.5644 13.9205
lfingers 7.12502
lthumb 8.69076 43.7216
rfemur -5.67461 -3.58872 33.6404
rtibia 30.3876
rfoot -22.0007 -8.28867
rtoes 8.79017
lfemur -19.2589 3.40358 -10.5831
ltibia 59.2495
lfoot -11.1219 6.2165
ltoes -14.092
472
root -5.1727 16.7702 -5.22259 265.678 83.797 269.277
lowerback 2.53784 -0.359882 7.09611
upperback 2.60942 -0.325418 1.00754
thorax 1.2381 -0.0348939 -2.93089
lowerneck -7.73891 0.0193386 2.39254
upperneck 10.8378 -0.383469 1.47717
head 4.51757 0.0230062 0.0430404
rclavicle 1.07468e-015 -5.56597e-015
rhumerus -30.5547 -2.25659 -88.0924
rradius 30.9389
rwrist -0.794638
rhand -19.2692 -6.47958
rfingers 7.12502
rthumb 7.04533 -36.3423
lclavicle 1.07468e-015 -5.56597e-015
lhumerus -33.1791 3.03322 84.9517
lradius 33.4003
lwrist 20.7826
lhand -17.5905 13.9296
lfingers 7.12502
lthumb 8.66557 43.7317
rfemur -5.3288 -3.70598 33.7886
rtibia 30.4704
rfoot -22.2597 -8.18354
rtoes 8.77742
lfemur -20.0264 3.08589 -10.6528
ltibia 58.36
lfoot -11.73 6.54095
ltoes -14.3085
473
root -5.07052 16.7566 -5.21465 266.185 83.665 269.773
lowerback 2.55191 -0.327285 7.30066
upperback 2.61697 -0.276964 1.01753
thorax 1.2434 -0.00668198 -3.03543
lowerneck -7.71304 0.0378737 2.4247
upperneck 10.7954 -0.353059 1.40512
head 4.50011 0.0339121 0.0174522
rclavicle 1.52816e-015 -1.94809e-014
rhumerus -30.4525 -2.02779 -88.2526
rradius 31.1775
rwrist -0.967384
rhand -19.262 -6.52868
rfingers 7.12502
rthumb 7.05229 -36.3912
lclavicle 1.52816e-015 -1.94809e-014
lhumerus -33.1335 2.97135 85.0073
lradius 33.5816
lwrist 20.8634
lhand -17.6168 13.9357
lfingers 7.12502
lthumb 8.64014 43.7389
rfemur -4.93174 -3.81471 33.9394
rtibia 30.4622
rfoot -22.5058 -8.09015
rtoes 8.71071
lfemur -20.7404 2.79208 -10.7145
ltibia 57.3801
lfoot -12.261 6.78079
ltoes -14.4887
474
root -4.96668 16.7453 -5.2074 266.77 83.5262 270.339
lowerback 2.54034 -0.293552 7.51843
upperback 2.62698 -0.229267 1.02931
thorax 1.26597 0.0220313 -3.14552
lowerneck -7.68576 0.057638 2.45907
upperneck 10.7514 -0.320926 1.33028
head 4.48198 0.0455776 -0.00925348
rclavicle 1.42255e-015 4.03533e-014
rhumerus -30.3558 -1.80879 -88.4073
rradius 31.4158
rwrist -1.13161
rhand -19.2534 -6.60897
rfingers 7.12502
rthumb 7.0605 -36.4712
lclavicle 1.42255e-015 4.03533e-014
lhumerus -33.088 2.9211 85.062
lradius 33.7165
lwrist 20.8993
lhand -17.6433 13.942
lfingers 7.12502
lthumb 8.61454 43.7463
rfemur -4.48406 -3.91481 34.0917
rtibia 30.3575
rfoot -22.7253 -8.00063
rtoes 8.617
lfemur -21.3998 2.53624 -10.7691
ltibia 56.3122
lfoot -12.7133 6.94304
ltoes -14.6537
475
root -4.862 16.7363 -5.20037 267.294 83.376 270.831
lowerback 2.50507 -0.263497 7.74749
upperback 2.63635 -0.188647 1.04555
thorax 1.30082 0.047839 -3.25717
lowerneck -7.66313 0.0798933 2.49325
upperneck 10.7078 -0.285587 1.25474
head 4.46476 0.0587977 -0.0359478
rclavicle 5.03174e-016 6.16232e-015
rhumerus -30.2611 -1.60097 -88.5558
rradius 31.6513
rwrist -1.28683
rhand -19.2406 -6.72196
rfingers 7.12502
rthumb 7.07291 -36.5838
lclavicle 5.03174e-016 6.16232e-015
lhumerus -33.0393 2.87807 85.1168
lradius 33.8036
lwrist 20.9023
lhand -17.6638 13.9365
lfingers 7.12502
lthumb 8.59478 43.7416
rfemur -4.0016 -3.9999 34.2553
rtibia 30.1613
rfoot -22.9108 -7.94302
rtoes 8.47955
lfemur -22.0228 2.30795 -10.814
ltibia 55.1627
lfoot -13.0779 7.03163
ltoes -14.8118
476
root -4.75638 16.7293 -5.1936 267.836 83.2185 271.332
lowerback 2.45068 -0.231967 7.9848
upperback 2.64726 -0.14813 1.06406
thorax 1.34841 0.0743212 -3.37098
lowerneck -7.64708 0.103214 2.5302
upperneck 10.6657 -0.249608 1.18045
head 4.44919 0.0725839 -0.0626637
rclavicle 1.16786e-015 4.57205e-015
rhumerus -30.1663 -1.4219 -88.6915
rradius 31.8624
rwrist -1.41611
rhand -19.2452 -6.76067
rfingers 7.12502
rthumb 7.06846 -36.6226
lclavicle 1.16786e-015 4.57205e-015
lhumerus -32.9846 2.83932 85.1717
lradius 33.8431
lwrist 20.8776
lhand -17.6783 13.9216
lfingers 7.12502
lthumb 8.58076 43.7272
rfemur -3.4842 -4.07029 34.4254
rtibia 29.8837
rfoot -23.0604 -7.90612
rtoes 8.32641
lfemur -22.6015 2.11334 -10.8546
ltibia 53.9365
lfoot -13.3704 7.06252
ltoes -14.9703
477
root -4.65049 16.7239 -5.18675 268.303 83.0525 271.738
lowerback 2.37634 -0.201978 8.22713
upperback 2.65235 -0.111783 1.08634
thorax 1.40106 0.0988753 -3.48353
lowerneck -7.63466 0.12782 2.56635
upperneck 10.6248 -0.212401 1.10984
head 4.43465 0.0872117 -0.0880493
rclavicle -2.70844e-015 -2.18663e-014
rhumerus -30.0766 -1.25895 -88.8197
rradius 32.0644
rwrist -1.54297
rhand -19.2605 -6.81188
rfingers 7.12502
rthumb 7.0537 -36.6743
lclavicle -2.70844e-015 -2.18663e-014
lhumerus -32.9294 2.80761 85.2258
lradius 33.8372
lwrist 20.8315
lhand -17.688 13.8965
lfingers 7.12502
lthumb 8.57139 43.7025
rfemur -2.95714 -4.12846 34.6072
rtibia 29.5408
rfoot -23.1765 -7.89361
rtoes 8.16783
lfemur -23.1578 1.94688 -10.8919
ltibia 52.6427
lfoot -13.5911 7.03762
ltoes -15.1114
478
root -4.54419 16.7198 -5.17996 268.771 82.8809 272.134
lowerback 2.28828 -0.170733 8.4717
upperback 2.65566 -0.0755512 1.11211
thorax 1.45993 0.12369 -3.59356
lowerneck -7.68689 0.152073 2.58422
upperneck 10.2523 -0.176251 1.05789
head 4.80914 0.0992213 -0.112787
rclavicle -3.8763e-015 -2.92213e-014
rhumerus -29.987 -1.11913 -88.9357
rradius 32.2396
rwrist -1.65046
rhand -19.2987 -6.7939
rfingers 7.12502
rthumb 7.01684 -36.6576
lclavicle -3.8763e-015 -2.92213e-014
lhumerus -32.8697 2.78141 85.2813
lradius 33.7878
lwrist 20.7701
lhand -17.6997 13.8849
lfingers 7.12502
lthumb 8.56016 43.6914
rfemur -2.41998 -4.17669 34.7961
rtibia 29.1479
rfoot -23.2582 -7.90597
rtoes 7.98782
lfemur -23.6803 1.81637 -10.9299
ltibia 51.2867
lfoot -13.7539 6.96996
ltoes -15.1999
479
root -4.43814 16.7165 -5.17307 269.127 82.7106 272.404
lowerback 2.19775 -0.144141 8.70899
upperback 2.653 -0.0461441 1.13997
thorax 1.51339 0.144658 -3.69717
lowerneck -7.68928 0.177046 2.6217
upperneck 10.2137 -0.140063 0.991341
head 4.79579 0.113945 -0.139978
rclavicle 1.85118e-015 1.33186e-014
rhumerus -29.9009 -0.987029 -89.0474
rradius 32.4005
rwrist -1.76006
rhand -19.3231 -6.78472
rfingers 7.12502
rthumb 6.99331 -36.6492
lclavicle 1.85118e-015 1.33186e-014
lhumerus -32.8125 2.7654 85.3354
lradius 33.6996
lwrist 20.6971
lhand -17.7132 13.8717
lfingers 7.12502
lthumb 8.54713 43.6787
rfemur -1.8837 -4.22466 34.9867
rtibia 28.7196
rfoot -23.3163 -7.94577
rtoes 7.76411
lfemur -24.1791 1.71152 -10.9791
ltibia 49.8785
lfoot -13.8672 6.87114
ltoes -15.2259
480
root -4.33176 16.7139 -5.16635 269.452 82.547 272.638
lowerback 2.10671 -0.11956 8.93496
upperback 2.64624 -0.019936 1.16905
thorax 1.56263 0.163598 -3.79302
lowerneck -7.69199 0.200616 2.65682
upperneck 10.1719 -0.105623 0.925587
head 4.78132 0.127699 -0.166581
rclavicle -1.98785e-015 0
rhumerus -29.8211 -0.866215 -89.1503
rradius 32.54
rwrist -1.85979
rhand -19.3405 -6.75099
rfingers 7.12502
rthumb 6.97647 -36.616
lclavicle -1.98785e-015 0
lhumerus -32.7615 2.76477 85.3882
lradius 33.5734
lwrist 20.6111
lhand -17.7102 13.838
lfingers 7.12502
lthumb 8.54998 43.6449
rfemur -1.34097 -4.28173 35.1683
rtibia 28.264
rfoot -23.3484 -7.98753
rtoes 7.52344
lfemur -24.6415 1.64432 -11.0489
ltibia 48.4238
lfoot -13.9355 6.76855
ltoes -15.2284
